<?xml version="1.0" encoding="iso-8859-1" standalone="yes"?><!-- Generator: Adobe Illustrator 19.0.0, SVG Export Plug-In . SVG Version: 6.00 Build 0)  --><svg xmlns="http://www.w3.org/2000/svg" xmlns:xlink="http://www.w3.org/1999/xlink" version="1.1" id="Capa_1" x="0px" y="0px" viewBox="0 0 489.8 489.8" style="enable-background:new 0 0 489.8 489.8;zoom: 1;" xml:space="preserve"><g><g><path d="M438.2,0 H51.6 C23.1,0 0,23.2 0,51.6 v386.6 c0,28.5 23.2,51.6 51.6,51.6 h386.6 c28.5,0 51.6,-23.2 51.6,-51.6 V51.6 C489.8,23.2 466.6,0 438.2,0 M465.3,438.2 c0,14.9 -12.2,27.1 -27.1,27.1 H51.6 c-14.9,0 -27.1,-12.2 -27.1,-27.1 V51.6 c0,-14.9 12.2,-27.1 27.1,-27.1 h386.6 c14.9,0 27.1,12.2 27.1,27.1 V438.2 " fill="#eceff1"></path><path fill="#eceff1" d="M337.4,232.7 h-80.3 v-80.3 c0,-6.8 -5.5,-12.3 -12.3,-12.3 s-12.3,5.5 -12.3,12.3 v80.3 h-80.3 c-6.8,0 -12.3,5.5 -12.3,12.2 c0,6.8 5.5,12.3 12.3,12.3 h80.3 v80.3 c0,6.8 5.5,12.3 12.3,12.3 s12.3,-5.5 12.3,-12.3 v-80.3 h80.3 c6.8,0 12.3,-5.5 12.3,-12.3 C349.7,238.1 344.2,232.7 337.4,232.7"></path></g></g></svg>
